<svg xmlns="http://www.w3.org/2000/svg" viewBox="0 0 1200 920" width="1200" height="920">
  <defs>
    <linearGradient id="bg" x1="0" y1="0" x2="0" y2="1">
      <stop offset="0%" stop-color="#090d1a"/>
      <stop offset="100%" stop-color="#06080f"/>
    </linearGradient>
    <linearGradient id="nb1g" x1="0" y1="0" x2="1" y2="0">
      <stop offset="0%" stop-color="rgba(83,74,183,0.22)"/>
      <stop offset="100%" stop-color="rgba(83,74,183,0.06)"/>
    </linearGradient>
    <linearGradient id="nb2g" x1="0" y1="0" x2="1" y2="0">
      <stop offset="0%" stop-color="rgba(29,158,117,0.20)"/>
      <stop offset="100%" stop-color="rgba(29,158,117,0.05)"/>
    </linearGradient>
    <linearGradient id="nb3g" x1="0" y1="0" x2="1" y2="0">
      <stop offset="0%" stop-color="rgba(216,90,48,0.20)"/>
      <stop offset="100%" stop-color="rgba(216,90,48,0.05)"/>
    </linearGradient>
    <pattern id="dots" width="24" height="24" patternUnits="userSpaceOnUse">
      <circle cx="1" cy="1" r="0.7" fill="rgba(255,255,255,0.035)"/>
    </pattern>
    <style>
      text { font-family: -apple-system, 'Segoe UI', Helvetica, Arial, sans-serif; }
      .mono { font-family: 'SFMono-Regular', Consolas, 'Liberation Mono', monospace; }
    </style>
  </defs>

  <!-- Background -->
  <rect width="1200" height="920" fill="url(#bg)"/>
  <rect width="1200" height="920" fill="url(#dots)"/>
  <rect x="0" y="0" width="400" height="3" fill="#534AB7"/>
  <rect x="400" y="0" width="400" height="3" fill="#1D9E75"/>
  <rect x="800" y="0" width="400" height="3" fill="#D85A30"/>

  <!-- HEADER -->
  <text x="50" y="40" class="mono" font-size="8.5" fill="#534AB7" letter-spacing="3" opacity="0.85">scRNA-seq · DRUG DISCOVERY · HCC</text>
  <text x="50" y="74" font-size="27" font-weight="700" fill="#e8eaf0">Single-Cell HCC Drug Discovery Pipeline</text>
  <text x="50" y="96" font-size="11.5" fill="#38405f">GEO GSE166635 (HCC1 normal-adjacent + HCC2 tumour)  ·  scanpy · CellTypist · ScType · SingleR · PyTorch Geometric</text>

  <!-- INPUT BOX -->
  <rect x="360" y="114" width="480" height="48" rx="7" fill="rgba(255,255,255,0.04)" stroke="rgba(255,255,255,0.1)" stroke-width="1"/>
  <text x="600" y="133" text-anchor="middle" class="mono" font-size="8" fill="#555" letter-spacing="2">RAW INPUT — GEO GSE166635</text>
  <text x="600" y="149" text-anchor="middle" font-size="12" font-weight="600" fill="#c8cde0">16,077 cells (HCC1)  +  9,112 cells (HCC2)  =  25,189 total</text>
  <text x="600" y="162" text-anchor="middle" font-size="9.5" fill="#3a3f5c">10x Genomics Chromium MTX format</text>

  <!-- Arrow down -->
  <line x1="600" y1="162" x2="600" y2="182" stroke="rgba(255,255,255,0.14)" stroke-width="1.5" stroke-dasharray="4,3"/>
  <polygon points="595,182 605,182 600,190" fill="rgba(255,255,255,0.18)"/>

  <!-- ════════════════════════════════════════════════
       COLUMN BACKGROUNDS  y=198 to y=730
       NB1 x=50-408   NB2 x=428-784   NB3 x=804-1150
       ════════════════════════════════════════════════ -->

  <!-- ── NB1 ── -->
  <rect x="50" y="198" width="358" height="534" rx="9" fill="url(#nb1g)" stroke="rgba(83,74,183,0.38)" stroke-width="1"/>
  <rect x="50" y="198" width="358" height="34" rx="9" fill="rgba(83,74,183,0.38)"/>
  <rect x="50" y="214" width="358" height="18" fill="rgba(83,74,183,0.38)"/>
  <text x="229" y="213" text-anchor="middle" class="mono" font-size="7.5" fill="#b0abf8" letter-spacing="2">NOTEBOOK  01</text>
  <text x="229" y="225" text-anchor="middle" font-size="10.5" font-weight="700" fill="#dcdaf8">01_scrna_analysis.ipynb</text>

  <!-- NB1 step helper: left-bar rect + title + detail lines -->
  <!-- Step 1 -->
  <rect x="66" y="242" width="326" height="52" rx="5" fill="rgba(255,255,255,0.025)" stroke="rgba(83,74,183,0.2)" stroke-width="1"/>
  <rect x="66" y="242" width="3" height="52" rx="1" fill="#534AB7" opacity="0.8"/>
  <text x="80" y="258" font-size="10.5" font-weight="600" fill="#c6c3f5">Preprocessing &amp; QC</text>
  <text x="80" y="272" font-size="9" fill="#454870">load_samples() · qc_metrics() · filter_cells()</text>
  <text x="80" y="284" font-size="9" fill="#454870">min 200 / max 2500 genes · mt &lt; 5%  →  2,795 cells kept</text>

  <!-- Step 2 -->
  <rect x="66" y="300" width="326" height="52" rx="5" fill="rgba(255,255,255,0.025)" stroke="rgba(83,74,183,0.2)" stroke-width="1"/>
  <rect x="66" y="300" width="3" height="52" rx="1" fill="#534AB7" opacity="0.8"/>
  <text x="80" y="316" font-size="10.5" font-weight="600" fill="#c6c3f5">Normalisation &amp; HVG selection</text>
  <text x="80" y="330" font-size="9" fill="#454870">normalize() · select_hvg(batch_key="sample")</text>
  <text x="80" y="342" font-size="9" fill="#454870">10k counts/cell · log1p · 2000 HVGs</text>

  <!-- Step 3 -->
  <rect x="66" y="358" width="326" height="52" rx="5" fill="rgba(255,255,255,0.025)" stroke="rgba(83,74,183,0.2)" stroke-width="1"/>
  <rect x="66" y="358" width="3" height="52" rx="1" fill="#534AB7" opacity="0.8"/>
  <text x="80" y="374" font-size="10.5" font-weight="600" fill="#c6c3f5">Dimensionality Reduction &amp; Clustering</text>
  <text x="80" y="388" font-size="9" fill="#454870">PCA (10 PCs) · UMAP (kNN=15) · Leiden</text>
  <text x="80" y="400" font-size="9" fill="#454870">4 resolutions tested (0.3 / 0.5 / 1.0 / 2.0) → 14 clusters</text>

  <!-- Step 4 -->
  <rect x="66" y="416" width="326" height="64" rx="5" fill="rgba(255,255,255,0.025)" stroke="rgba(83,74,183,0.2)" stroke-width="1"/>
  <rect x="66" y="416" width="3" height="64" rx="1" fill="#534AB7" opacity="0.8"/>
  <text x="80" y="432" font-size="10.5" font-weight="600" fill="#c6c3f5">Cell-type Annotation — 4-way majority vote</text>
  <text x="80" y="446" font-size="9" fill="#454870">CellTypist (coarse + fine)  ·  ScType – liver DB (R)</text>
  <text x="80" y="458" font-size="9" fill="#454870">SingleR – HPCA reference (R)  ·  marker scoring</text>
  <text x="80" y="470" font-size="9" fill="#454870">→ Macrophages · T-cells · Hepatocytes · Monocytes · Plasma</text>

  <!-- Step 5 -->
  <rect x="66" y="486" width="326" height="52" rx="5" fill="rgba(255,255,255,0.025)" stroke="rgba(83,74,183,0.2)" stroke-width="1"/>
  <rect x="66" y="486" width="3" height="52" rx="1" fill="#534AB7" opacity="0.8"/>
  <text x="80" y="502" font-size="10.5" font-weight="600" fill="#c6c3f5">Differential Expression (DEA)</text>
  <text x="80" y="516" font-size="9" fill="#454870">run_wilcoxon() · padj &lt; 0.05 · |log₂FC| &gt; 1</text>
  <text x="80" y="528" font-size="9" fill="#454870">1,385 DEGs · 335 ↑ tumour · 1,050 ↓ tumour</text>

  <!-- Step 6 -->
  <rect x="66" y="544" width="326" height="64" rx="5" fill="rgba(255,255,255,0.025)" stroke="rgba(83,74,183,0.2)" stroke-width="1"/>
  <rect x="66" y="544" width="3" height="64" rx="1" fill="#534AB7" opacity="0.8"/>
  <text x="80" y="560" font-size="10.5" font-weight="600" fill="#c6c3f5">GSEA &amp; Pathway Enrichment</text>
  <text x="80" y="574" font-size="9" fill="#454870">prepare_ranked_list() · run_gsea_r() — clusterProfiler (R)</text>
  <text x="80" y="586" font-size="9" fill="#454870">GO-BP/MF/CC · KEGG · query_gene_pathways()</text>
  <text x="80" y="598" font-size="9" fill="#454870">generate_pathway_summary_table() · volcano plot</text>

  <!-- NB1 output -->
  <rect x="66" y="620" width="326" height="28" rx="5" fill="rgba(83,74,183,0.22)" stroke="rgba(83,74,183,0.5)" stroke-width="1"/>
  <text x="229" y="634" text-anchor="middle" class="mono" font-size="7.5" fill="#a49ef5" letter-spacing="1">OUTPUT</text>
  <text x="229" y="644" text-anchor="middle" font-size="9.5" font-weight="600" fill="#c0bcf5">dea_results.csv  ·  adata_annotated.h5ad</text>

  <!-- NB1 key numbers callout -->
  <rect x="66" y="654" width="326" height="30" rx="5" fill="rgba(83,74,183,0.09)" stroke="rgba(83,74,183,0.18)" stroke-width="1" stroke-dasharray="3,2"/>
  <text x="80" y="667" font-size="8.5" fill="#7b72e8">↑  XIST +31.2  ·  OLFM4  ·  CEACAM6  ·  MIA</text>
  <text x="80" y="679" font-size="8.5" fill="#7b72e8">↓  APOA2 −33.6  ·  ALB  ·  FABP1  ·  AHSG  ·  AFP</text>

  <!-- NB1 report link -->
  <rect x="66" y="690" width="326" height="22" rx="5" fill="rgba(83,74,183,0.12)" stroke="rgba(83,74,183,0.28)" stroke-width="1"/>
  <text x="229" y="705" text-anchor="middle" class="mono" font-size="8.5" fill="#9b93e8">📄  01_scrna_analysis_report.html</text>

  <!-- ── NB2 ── -->
  <rect x="428" y="198" width="358" height="534" rx="9" fill="url(#nb2g)" stroke="rgba(29,158,117,0.38)" stroke-width="1"/>
  <rect x="428" y="198" width="358" height="34" rx="9" fill="rgba(29,158,117,0.32)"/>
  <rect x="428" y="214" width="358" height="18" fill="rgba(29,158,117,0.32)"/>
  <text x="607" y="213" text-anchor="middle" class="mono" font-size="7.5" fill="#65d4a8" letter-spacing="2">NOTEBOOK  02</text>
  <text x="607" y="225" text-anchor="middle" font-size="10.5" font-weight="700" fill="#bdf0da">02_target_prioritisation.ipynb</text>

  <!-- P1 label -->
  <text x="444" y="252" class="mono" font-size="7.5" fill="#1D9E75" letter-spacing="1.5" opacity="0.8">P1 · PPI NETWORK</text>
  <!-- Step 1 -->
  <rect x="444" y="256" width="326" height="52" rx="5" fill="rgba(255,255,255,0.025)" stroke="rgba(29,158,117,0.2)" stroke-width="1"/>
  <rect x="444" y="256" width="3" height="52" rx="1" fill="#1D9E75" opacity="0.8"/>
  <text x="458" y="272" font-size="10.5" font-weight="600" fill="#c0e8d8">PPI Network — STRING API</text>
  <text x="458" y="286" font-size="9" fill="#2e5046">load_dea() · query_string() · build_and_score()</text>
  <text x="458" y="298" font-size="9" fill="#2e5046">confidence ≥ 400 · 1,162 DEGs queried · NetworkX</text>

  <!-- Step 2 -->
  <rect x="444" y="314" width="326" height="52" rx="5" fill="rgba(255,255,255,0.025)" stroke="rgba(29,158,117,0.2)" stroke-width="1"/>
  <rect x="444" y="314" width="3" height="52" rx="1" fill="#1D9E75" opacity="0.8"/>
  <text x="458" y="330" font-size="10.5" font-weight="600" fill="#c0e8d8">Hub Gene Centrality Ranking</text>
  <text x="458" y="344" font-size="9" fill="#2e5046">degree · betweenness · composite hub score</text>
  <text x="458" y="356" font-size="9" fill="#2e5046">top 20: GAPDH · CD4 · IL1B · ALB · APOE · MMP9</text>

  <!-- P2 label -->
  <text x="444" y="378" class="mono" font-size="7.5" fill="#1D9E75" letter-spacing="1.5" opacity="0.8">P2 · DRUG–GENE INTERACTIONS</text>
  <!-- Step 3 -->
  <rect x="444" y="382" width="326" height="64" rx="5" fill="rgba(255,255,255,0.025)" stroke="rgba(29,158,117,0.2)" stroke-width="1"/>
  <rect x="444" y="382" width="3" height="64" rx="1" fill="#1D9E75" opacity="0.8"/>
  <text x="458" y="398" font-size="10.5" font-weight="600" fill="#c0e8d8">Drug–Gene Interaction Queries</text>
  <text x="458" y="412" font-size="9" fill="#2e5046">collect_interactions() — DGIdb + curated fallback</text>
  <text x="458" y="424" font-size="9" fill="#2e5046">(ChEMBL / OpenTargets configurable)</text>
  <text x="458" y="436" font-size="9" fill="#2e5046">8,027 edges · 547 genes · 4,978 drug candidates</text>

  <!-- Step 4 -->
  <rect x="444" y="452" width="326" height="52" rx="5" fill="rgba(255,255,255,0.025)" stroke="rgba(29,158,117,0.2)" stroke-width="1"/>
  <rect x="444" y="452" width="3" height="52" rx="1" fill="#1D9E75" opacity="0.8"/>
  <text x="458" y="468" font-size="10.5" font-weight="600" fill="#c0e8d8">Composite Scoring</text>
  <text x="458" y="482" font-size="9" fill="#2e5046">build_dgi_dataframe() · 5-factor weighted score</text>
  <text x="458" y="494" font-size="9" fill="#2e5046">interaction · publications · phase · approved · hub</text>

  <!-- Step 5 -->
  <rect x="444" y="510" width="326" height="52" rx="5" fill="rgba(255,255,255,0.025)" stroke="rgba(29,158,117,0.2)" stroke-width="1"/>
  <rect x="444" y="510" width="3" height="52" rx="1" fill="#1D9E75" opacity="0.8"/>
  <text x="458" y="526" font-size="10.5" font-weight="600" fill="#c0e8d8">DGI Dashboard &amp; GNN Edge List</text>
  <text x="458" y="540" font-size="9" fill="#2e5046">plot_dgi_dashboard() · top-20 heatmap</text>
  <text x="458" y="552" font-size="9" fill="#2e5046">build_gnn_edge_list() → dgi_edges_gnn.csv</text>

  <!-- Step 6 placeholder space for alignment -->
  <rect x="444" y="568" width="326" height="42" rx="5" fill="rgba(255,255,255,0.015)" stroke="rgba(29,158,117,0.12)" stroke-width="1" stroke-dasharray="4,3"/>
  <rect x="444" y="568" width="3" height="42" rx="1" fill="#1D9E75" opacity="0.35"/>
  <text x="458" y="584" font-size="10.5" font-weight="600" fill="#4d8870">Network Visualisation</text>
  <text x="458" y="598" font-size="9" fill="#2a4038">plot_ppi_network() · PPI graph export</text>

  <!-- NB2 output -->
  <rect x="444" y="620" width="326" height="28" rx="5" fill="rgba(29,158,117,0.2)" stroke="rgba(29,158,117,0.5)" stroke-width="1"/>
  <text x="607" y="634" text-anchor="middle" class="mono" font-size="7.5" fill="#65d4a8" letter-spacing="1">OUTPUT</text>
  <text x="607" y="644" text-anchor="middle" font-size="9.5" font-weight="600" fill="#bdf0da">dgi_edges_gnn.csv  ·  ppi_hub_genes.csv</text>

  <!-- NB2 key callout -->
  <rect x="444" y="654" width="326" height="30" rx="5" fill="rgba(29,158,117,0.08)" stroke="rgba(29,158,117,0.18)" stroke-width="1" stroke-dasharray="3,2"/>
  <text x="458" y="667" font-size="8.5" fill="#4fa87a">Top targets: FTL · TYROBP · AIF1 · IL1B · GAPDH</text>
  <text x="458" y="679" font-size="8.5" fill="#4fa87a">Approved drugs: Sorafenib · Minocycline · Deferoxamine</text>

  <!-- NB2 report link -->
  <rect x="444" y="690" width="326" height="22" rx="5" fill="rgba(29,158,117,0.1)" stroke="rgba(29,158,117,0.28)" stroke-width="1"/>
  <text x="607" y="705" text-anchor="middle" class="mono" font-size="8.5" fill="#50b888">📄  02_target_prioritisation_report.html</text>

  <!-- ── NB3 ── -->
  <rect x="804" y="198" width="358" height="534" rx="9" fill="url(#nb3g)" stroke="rgba(216,90,48,0.38)" stroke-width="1"/>
  <rect x="804" y="198" width="358" height="34" rx="9" fill="rgba(216,90,48,0.3)"/>
  <rect x="804" y="214" width="358" height="18" fill="rgba(216,90,48,0.3)"/>
  <text x="983" y="213" text-anchor="middle" class="mono" font-size="7.5" fill="#f09070" letter-spacing="2">NOTEBOOK  03</text>
  <text x="983" y="225" text-anchor="middle" font-size="10.5" font-weight="700" fill="#fbd5c8">03_gnn_drug_ranking.ipynb</text>

  <!-- Step 1 -->
  <rect x="820" y="242" width="326" height="52" rx="5" fill="rgba(255,255,255,0.025)" stroke="rgba(216,90,48,0.2)" stroke-width="1"/>
  <rect x="820" y="242" width="3" height="52" rx="1" fill="#D85A30" opacity="0.8"/>
  <text x="834" y="258" font-size="10.5" font-weight="600" fill="#fbd5c8">Bipartite Graph Construction</text>
  <text x="834" y="272" font-size="9" fill="#523020">build_graph() — genes + drugs as nodes</text>
  <text x="834" y="284" font-size="9" fill="#523020">547 genes · 4,978 drugs · 8,027 edges · 17 features</text>

  <!-- Step 2 -->
  <rect x="820" y="300" width="326" height="52" rx="5" fill="rgba(255,255,255,0.025)" stroke="rgba(216,90,48,0.2)" stroke-width="1"/>
  <rect x="820" y="300" width="3" height="52" rx="1" fill="#D85A30" opacity="0.8"/>
  <text x="834" y="316" font-size="10.5" font-weight="600" fill="#fbd5c8">Feature Engineering</text>
  <text x="834" y="330" font-size="9" fill="#523020">make_edge_tensors() · MACCS fingerprints</text>
  <text x="834" y="342" font-size="9" fill="#523020">one-hot · gene expression levels as node features</text>

  <!-- Step 3 -->
  <rect x="820" y="358" width="326" height="64" rx="5" fill="rgba(255,255,255,0.025)" stroke="rgba(216,90,48,0.2)" stroke-width="1"/>
  <rect x="820" y="358" width="3" height="64" rx="1" fill="#D85A30" opacity="0.8"/>
  <text x="834" y="374" font-size="10.5" font-weight="600" fill="#fbd5c8">Three GNN Architectures Trained</text>
  <text x="834" y="388" font-size="9" fill="#523020">GCNModel  · GATModel (4 heads) · SAGEModel</text>
  <text x="834" y="400" font-size="9" fill="#523020">hidden=128 · embed=64 · dropout=0.3 · lr=0.005</text>
  <text x="834" y="412" font-size="9" fill="#523020">300 epochs · early stopping (patience=40)</text>

  <!-- Step 4 — model comparison table -->
  <rect x="820" y="428" width="326" height="72" rx="5" fill="rgba(255,255,255,0.025)" stroke="rgba(216,90,48,0.2)" stroke-width="1"/>
  <rect x="820" y="428" width="3" height="72" rx="1" fill="#D85A30" opacity="0.8"/>
  <text x="834" y="444" font-size="10.5" font-weight="600" fill="#fbd5c8">Model Comparison &amp; Evaluation</text>
  <!-- mini table -->
  <text x="834" y="458" class="mono" font-size="8.5" fill="#8a5540">Model        R²      MSE     MAE</text>
  <line x1="834" y1="462" x2="1136" y2="462" stroke="rgba(216,90,48,0.2)" stroke-width="0.8"/>
  <text x="834" y="474" class="mono" font-size="8.5" fill="#7a4a38">GCN          0.970   0.001   0.020</text>
  <text x="834" y="486" class="mono" font-size="8.5" fill="#7a4a38">GAT          0.976   0.001   0.015</text>
  <text x="834" y="496" class="mono" font-size="8.5" font-weight="700" fill="#f09070">GraphSAGE ★  0.993   0.000   0.007</text>

  <!-- Step 5 -->
  <rect x="820" y="506" width="326" height="52" rx="5" fill="rgba(255,255,255,0.025)" stroke="rgba(216,90,48,0.2)" stroke-width="1"/>
  <rect x="820" y="506" width="3" height="52" rx="1" fill="#D85A30" opacity="0.8"/>
  <text x="834" y="522" font-size="10.5" font-weight="600" fill="#fbd5c8">Drug Ranking (GraphSAGE)</text>
  <text x="834" y="536" font-size="9" fill="#523020">rank_drugs() · 4,978 candidates scored</text>
  <text x="834" y="548" font-size="9" fill="#523020">GNN score + delta vs. composite baseline</text>

  <!-- Step 6 -->
  <rect x="820" y="564" width="326" height="42" rx="5" fill="rgba(255,255,255,0.025)" stroke="rgba(216,90,48,0.2)" stroke-width="1"/>
  <rect x="820" y="564" width="3" height="42" rx="1" fill="#D85A30" opacity="0.8"/>
  <text x="834" y="580" font-size="10.5" font-weight="600" fill="#fbd5c8">Drug–Gene Interaction Network</text>
  <text x="834" y="594" font-size="9" fill="#523020">plot_drug_gene_network() · top-20 bipartite graph</text>

  <!-- NB3 output -->
  <rect x="820" y="620" width="326" height="28" rx="5" fill="rgba(216,90,48,0.2)" stroke="rgba(216,90,48,0.5)" stroke-width="1"/>
  <text x="983" y="634" text-anchor="middle" class="mono" font-size="7.5" fill="#f09070" letter-spacing="1">OUTPUT</text>
  <text x="983" y="644" text-anchor="middle" font-size="9.5" font-weight="600" fill="#fbd5c8">gnn_drug_ranking.csv  ·  gnn_node_embeddings.csv</text>

  <!-- NB3 key callout -->
  <rect x="820" y="654" width="326" height="30" rx="5" fill="rgba(216,90,48,0.08)" stroke="rgba(216,90,48,0.18)" stroke-width="1" stroke-dasharray="3,2"/>
  <text x="834" y="667" font-size="8.5" fill="#c07050">★ Minocycline (AIF1) · Regorafenib (TYROBP)</text>
  <text x="834" y="679" font-size="8.5" fill="#c07050">Deferiprone · Deferasirox · Sorafenib (all FDA approved)</text>

  <!-- NB3 report link -->
  <rect x="820" y="690" width="326" height="22" rx="5" fill="rgba(216,90,48,0.1)" stroke="rgba(216,90,48,0.28)" stroke-width="1"/>
  <text x="983" y="705" text-anchor="middle" class="mono" font-size="8.5" fill="#e08060">📄  03_gnn_drug_ranking_report.html</text>

  <!-- Colab badge area NB3 -->
  <rect x="820" y="718" width="326" height="18" rx="4" fill="rgba(255,165,0,0.08)" stroke="rgba(255,165,0,0.25)" stroke-width="1"/>
  <text x="983" y="731" text-anchor="middle" font-size="8.5" fill="#d4a040">⚡  Google Colab / GPU compatible — auto-detected</text>

  <!-- INTER-COLUMN ARROWS -->
  <!-- NB1 → NB2 -->
  <path d="M408 485 L428 485" stroke="rgba(140,120,255,0.65)" stroke-width="2.5" fill="none"/>
  <polygon points="420,480 428,485 420,490" fill="rgba(140,120,255,0.65)"/>
  <text x="418" y="474" text-anchor="middle" class="mono" font-size="7" fill="#7a72c8">DEGs</text>

  <!-- NB2 → NB3 -->
  <path d="M786 485 L804 485" stroke="rgba(60,180,130,0.65)" stroke-width="2.5" fill="none"/>
  <polygon points="797,480 804,485 797,490" fill="rgba(60,180,130,0.65)"/>
  <text x="795" y="474" text-anchor="middle" class="mono" font-size="7" fill="#30a870">edges</text>

  <!-- UTILITY SCRIPTS FOOTER BAR -->
  <rect x="50" y="748" width="1112" height="36" rx="7" fill="rgba(255,255,255,0.025)" stroke="rgba(255,255,255,0.07)" stroke-width="1"/>
  <text x="91" y="763" class="mono" font-size="8" fill="#38405f" letter-spacing="0.5">scripts/utils/</text>
  <text x="91" y="777" class="mono" font-size="8" fill="#534AB7" opacity="0.9">scrna_functions.py · dea_functions.py · gsea_functions.py</text>
  <line x1="430" y1="752" x2="430" y2="780" stroke="rgba(255,255,255,0.06)" stroke-width="1"/>
  <text x="471" y="763" class="mono" font-size="8" fill="#38405f" letter-spacing="0.5">scripts/utils/</text>
  <text x="471" y="777" class="mono" font-size="8" fill="#1D9E75" opacity="0.9">ppi_functions.py · dgi_functions.py · plot_utils.py</text>
  <line x1="808" y1="752" x2="808" y2="780" stroke="rgba(255,255,255,0.06)" stroke-width="1"/>
  <text x="849" y="763" class="mono" font-size="8" fill="#38405f" letter-spacing="0.5">scripts/utils/</text>
  <text x="849" y="777" class="mono" font-size="8" fill="#D85A30" opacity="0.9">gnn_functions.py · report_functions.py</text>

  <!-- BOTTOM KEY RESULTS ROW -->
  <rect x="50" y="794" width="1112" height="56" rx="7" fill="rgba(255,255,255,0.02)" stroke="rgba(255,255,255,0.06)" stroke-width="1"/>
  <text x="606" y="812" text-anchor="middle" class="mono" font-size="7.5" fill="#333" letter-spacing="2.5">KEY RESULTS</text>

  <!-- chips row 1 -->
  <rect x="66" y="818" width="186" height="20" rx="4" fill="rgba(83,74,183,0.14)" stroke="rgba(83,74,183,0.38)" stroke-width="1"/>
  <text x="159" y="832" text-anchor="middle" font-size="9" fill="#a49ef5">1,385 DEGs · 335↑ · 1,050↓</text>

  <rect x="260" y="818" width="200" height="20" rx="4" fill="rgba(83,74,183,0.14)" stroke="rgba(83,74,183,0.38)" stroke-width="1"/>
  <text x="360" y="832" text-anchor="middle" font-size="9" fill="#a49ef5">XIST +31.2 FC · APOA2 −33.6 FC</text>

  <rect x="468" y="818" width="194" height="20" rx="4" fill="rgba(29,158,117,0.14)" stroke="rgba(29,158,117,0.38)" stroke-width="1"/>
  <text x="565" y="832" text-anchor="middle" font-size="9" fill="#65d4a8">8,027 drug–gene pairs</text>

  <rect x="670" y="818" width="194" height="20" rx="4" fill="rgba(29,158,117,0.14)" stroke="rgba(29,158,117,0.38)" stroke-width="1"/>
  <text x="767" y="832" text-anchor="middle" font-size="9" fill="#65d4a8">GAPDH · ALB · APOE hubs</text>

  <rect x="872" y="818" width="272" height="20" rx="4" fill="rgba(216,90,48,0.14)" stroke="rgba(216,90,48,0.38)" stroke-width="1"/>
  <text x="1008" y="832" text-anchor="middle" font-size="9" fill="#f09070">GraphSAGE R²=0.993 · all top-20 FDA approved</text>

  <!-- footer -->
  <line x1="50" y1="860" x2="1150" y2="860" stroke="rgba(255,255,255,0.04)" stroke-width="1"/>
  <text x="50" y="876" font-size="8" fill="#1c1f30">github.com/fshokor/scRNAseq_HCC</text>
  <text x="1150" y="876" text-anchor="end" font-size="8" fill="#1c1f30">GEO: GSE166635 · scanpy · CellTypist · ScType · SingleR · PyTorch Geometric</text>

</svg>
